<svg width="32" height="32" viewBox="0 0 32 32" fill="none" xmlns="http://www.w3.org/2000/svg">
<path d="M27.6943 0H4.30572C1.92773 0 0 1.92773 0 4.30572V27.6943C0 30.0723 1.92773 32 4.30572 32H27.6943C30.0723 32 32 30.0723 32 27.6943V4.30572C32 1.92773 30.0723 0 27.6943 0Z" fill="#605EED"/>
<path d="M9.55803 23.9228C6.75679 23.9871 4.04444 21.3839 4.66122 18.5367C5.08098 15.5545 7.87365 14.5415 10.4564 13.536C12.6302 12.6901 14.0233 11.9919 13.8284 11.3355C13.6913 10.874 12.7319 10.8815 10.541 11.5132C8.53326 12.1761 6.44626 13.3004 5.83269 13.8155L4.82077 10.8483C6.22567 9.8824 10.2348 8.20552 12.6237 8.08344C15.2836 7.94745 17.6009 9.87062 16.7464 12.5252C15.6916 15.8018 9.52804 16.0642 8.16491 18.2058C7.48387 19.2755 8.24307 20.765 9.70366 20.734C13.3026 20.6569 16.3855 14.0125 18.3879 11.0742C20.4428 8.05989 25.3621 7.72794 27.0186 10.8804C27.8292 12.4256 27.2713 14.5725 26.7573 16.6863C26.1598 19.1481 25.3781 21.6495 24.9209 23.5234H21.2202C21.2202 23.5234 23.7098 15.9753 24.1681 13.8637C24.4176 12.7136 23.849 11.7477 22.5962 11.8655C21.0553 12.0112 19.9845 14.3241 19.0786 15.9753C16.9691 19.8248 14.6808 23.9228 9.5591 23.9218L9.55803 23.9228Z" fill="white"/>
</svg>
