<svg width="152" height="32" viewBox="0 0 152 32" fill="none" xmlns="http://www.w3.org/2000/svg">
<g clip-path="url(#clip0_74_777)">
<path d="M27.6964 0H4.30364C1.92681 0 0 1.92681 0 4.30364V27.6964C0 30.0732 1.92681 32 4.30364 32H27.6964C30.0732 32 32 30.0732 32 27.6964V4.30364C32 1.92681 30.0732 0 27.6964 0Z" fill="#605EED"/>
<path d="M9.58312 23.8913C6.79594 23.9545 4.093 21.3638 4.70379 18.5275C5.12503 15.5578 7.90519 14.5468 10.4747 13.5429C12.6371 12.7004 14.0272 12.0054 13.8376 11.3524C13.7042 10.8961 12.7424 10.9031 10.566 11.528C8.56513 12.1879 6.48703 13.3112 5.87623 13.8237L4.86527 10.868C6.26237 9.90619 10.2571 8.23528 12.6371 8.11593C15.2839 7.98254 17.5937 9.89917 16.7442 12.5389C15.6911 15.8035 9.55504 16.0633 8.19304 18.1975C7.51204 19.2647 8.27027 20.746 9.72354 20.7179C13.3111 20.6407 16.3791 14.0203 18.3729 11.0927C20.423 8.08785 25.3234 7.75788 26.9732 10.9031C27.7806 12.4406 27.2259 14.5819 26.7134 16.6881C26.1167 19.1383 25.3374 21.6306 24.8811 23.4981H21.1952C21.1952 23.4981 23.6735 15.979 24.1299 13.8728C24.3756 12.7285 23.8139 11.7667 22.5643 11.886C21.0267 12.0334 19.9596 14.3362 19.061 15.979C16.9618 19.8123 14.6801 23.8983 9.5761 23.8983L9.58312 23.8913Z" fill="white"/>
<path d="M51.2154 12.2093C50.8995 11.5493 50.4431 10.9947 49.8393 10.5454C48.8775 9.84331 47.663 9.49228 46.1956 9.49228C44.7283 9.49228 43.5138 9.82927 42.4466 10.5033C41.3795 11.1772 40.544 12.125 39.9473 13.3536C39.3576 14.5752 39.0557 16.0215 39.0557 17.6713C39.0557 19.3212 39.3435 20.7253 39.9122 21.9258C40.4808 23.1333 41.2952 24.0671 42.3483 24.727C43.4014 25.394 44.6371 25.724 46.0693 25.724C47.5015 25.724 48.695 25.3799 49.713 24.6989C50.4572 24.2005 50.9907 23.5827 51.3347 22.8455V25.4221H55.1048V3.36328H51.2154V12.2093ZM50.1904 21.2659C49.4462 22.1364 48.4493 22.5647 47.2066 22.5647C45.964 22.5647 44.96 22.1364 44.2018 21.2799C43.4436 20.4234 43.0715 19.2088 43.0715 17.6362C43.0715 16.0636 43.4506 14.842 44.2018 13.9785C44.96 13.1079 45.9499 12.6796 47.1715 12.6796C48.3931 12.6796 49.4181 13.1079 50.1763 13.9644C50.9346 14.8209 51.3067 16.0355 51.3067 17.6081C51.3067 19.1807 50.9346 20.4023 50.1904 21.2659Z" fill="black"/>
<path d="M77.1775 4.80194L73.288 6.24117V9.79361H70.2832V12.8265H73.288V20.2684C73.288 22.0867 73.7444 23.4487 74.65 24.3544C75.5557 25.26 76.9739 25.7164 78.8905 25.7164C79.4451 25.7164 79.9436 25.6813 80.3929 25.6111C80.8422 25.5409 81.1862 25.4426 81.432 25.3232V22.3184C81.1862 22.4026 80.9265 22.4658 80.6527 22.515C80.3789 22.5641 80.0629 22.5922 79.7189 22.5922C78.8413 22.5922 78.1954 22.4097 77.7883 22.0376C77.3811 21.6725 77.1775 21.1108 77.1775 20.3526V12.8195H81.432V9.78658H77.1775V4.79492V4.80194Z" fill="black"/>
<path d="M96.2387 22.29V15.2132C96.2387 13.3317 95.6841 11.9135 94.5818 10.9376C93.4796 9.9688 91.8578 9.48438 89.7095 9.48438C87.5612 9.48438 86.0026 9.9337 84.781 10.8323C83.5524 11.731 82.8644 12.9034 82.6959 14.3567H86.4028C86.5221 13.7248 86.8591 13.2404 87.3997 12.9034C87.9403 12.5664 88.6705 12.3979 89.5902 12.3979C90.5099 12.3979 91.226 12.6086 91.6893 13.0228C92.1457 13.444 92.3773 14.0618 92.3773 14.8762V15.6555L88.2141 16.2874C86.3115 16.5752 84.8442 17.1369 83.8052 17.9723C82.7661 18.8078 82.2466 19.9451 82.2466 21.3703C82.2466 22.6972 82.7099 23.7573 83.6367 24.5436C84.5634 25.3299 85.8131 25.7231 87.3857 25.7231C88.7336 25.7231 89.871 25.4352 90.7977 24.8525C91.5278 24.3962 92.0965 23.7643 92.5107 22.964C92.5248 23.3782 92.5458 23.7433 92.5739 24.0662C92.6231 24.5577 92.7003 25.007 92.8056 25.4142H96.6669C96.5265 24.8455 96.4142 24.3049 96.344 23.7924C96.2738 23.2799 96.2387 22.7814 96.2387 22.29ZM91.2821 21.953C90.545 22.5076 89.6253 22.7814 88.523 22.7814C87.7648 22.7814 87.1751 22.627 86.7468 22.304C86.3185 21.9881 86.1009 21.5318 86.1009 20.942C86.1009 20.2891 86.3326 19.7766 86.7889 19.4115C87.2453 19.0465 87.9403 18.7867 88.853 18.6463L92.3773 18.1127V19.9381C92.3773 20.7314 92.0123 21.4054 91.2751 21.96L91.2821 21.953Z" fill="black"/>
<path d="M69.8622 22.29V15.2132C69.8622 13.3317 69.3076 11.9135 68.2054 10.9376C67.1031 9.9688 65.4813 9.48438 63.333 9.48438C61.1847 9.48438 59.6262 9.9337 58.4046 10.8323C57.176 11.731 56.4879 12.9034 56.3194 14.3567H60.0263C60.1457 13.7248 60.4827 13.2404 61.0233 12.9034C61.5638 12.5664 62.294 12.3979 63.2137 12.3979C64.1334 12.3979 64.8495 12.6086 65.3129 13.0228C65.7692 13.444 66.0009 14.0618 66.0009 14.8762V15.6555L61.8376 16.2874C59.9351 16.5752 58.4677 17.1369 57.4287 17.9723C56.3896 18.8078 55.8701 19.9451 55.8701 21.3703C55.8701 22.6972 56.3335 23.7573 57.2602 24.5436C58.1869 25.3299 59.4366 25.7231 61.0092 25.7231C62.3572 25.7231 63.4945 25.4352 64.4212 24.8525C65.1514 24.3962 65.72 23.7643 66.1343 22.964C66.1483 23.3782 66.1694 23.7433 66.1975 24.0662C66.2466 24.5577 66.3238 25.007 66.4291 25.4142H70.2905C70.1501 24.8455 70.0377 24.3049 69.9675 23.7924C69.8973 23.2799 69.8622 22.7814 69.8622 22.29ZM64.8986 21.953C64.1615 22.5076 63.2418 22.7814 62.1395 22.7814C61.3813 22.7814 60.7916 22.627 60.3633 22.304C59.9351 21.9881 59.7174 21.5318 59.7174 20.942C59.7174 20.2891 59.9491 19.7766 60.4054 19.4115C60.8618 19.0465 61.5568 18.7867 62.4695 18.6463L65.9939 18.1127V19.9381C65.9939 20.7314 65.6288 21.4054 64.8916 21.96L64.8986 21.953Z" fill="black"/>
<path d="M107.359 9.49219C105.927 9.49219 104.705 9.8362 103.68 10.5172C102.838 11.0788 102.171 11.802 101.659 12.6795V9.80109H97.8884V25.422H101.75V16.9972C101.75 16.1407 101.925 15.3825 102.283 14.7296C102.641 14.0767 103.14 13.5641 103.786 13.1991C104.432 12.834 105.162 12.6444 105.976 12.6444C106.917 12.6444 107.633 12.8902 108.117 13.3816C108.609 13.8731 108.855 14.5962 108.855 15.558V25.422H112.744V14.7647C112.744 13.171 112.267 11.8932 111.319 10.9384C110.371 9.97661 109.044 9.49921 107.352 9.49921L107.359 9.49219Z" fill="black"/>
<path d="M126.048 12.5672C125.746 11.7458 125.241 11.0718 124.532 10.5453C123.584 9.84322 122.369 9.49219 120.902 9.49219C119.435 9.49219 118.22 9.82216 117.153 10.4891C116.079 11.1561 115.25 12.0758 114.654 13.2623C114.064 14.4487 113.762 15.8318 113.762 17.4255C113.762 19.0192 114.05 20.3742 114.619 21.5466C115.187 22.719 115.995 23.6317 117.02 24.2846C118.052 24.9376 119.259 25.2675 120.649 25.2675C122.039 25.2675 123.324 24.9235 124.328 24.2425C125.065 23.737 125.592 23.1122 125.922 22.361V24.8112C125.922 26.117 125.578 27.0929 124.883 27.7388C124.188 28.3847 123.114 28.7006 121.667 28.7006C120.663 28.7006 119.856 28.5532 119.231 28.2583C118.606 27.9634 118.206 27.5492 118.024 27.0157H114.345C114.591 28.5462 115.37 29.7607 116.69 30.6594C118.01 31.558 119.695 32.0073 121.759 32.0073C124.251 32.0073 126.217 31.3614 127.656 30.0626C129.095 28.7638 129.818 27.0016 129.818 24.7761V9.79407H126.048V12.5672ZM124.904 20.9288C124.16 21.7783 123.163 22.1995 121.92 22.1995C120.677 22.1995 119.673 21.7783 118.915 20.9428C118.157 20.1074 117.785 18.9209 117.785 17.3904C117.785 15.8599 118.164 14.6664 118.915 13.8239C119.673 12.9744 120.663 12.5532 121.885 12.5532C123.107 12.5532 124.132 12.9744 124.89 13.8099C125.648 14.6453 126.02 15.8318 126.02 17.3623C126.02 18.8928 125.648 20.0863 124.904 20.9288Z" fill="black"/>
<path d="M134.936 3.36328H131.075V25.4151H134.936V3.36328Z" fill="black"/>
<path d="M150.656 13.164C150.024 11.9985 149.132 11.0999 147.988 10.454C146.843 9.80812 145.495 9.49219 143.944 9.49219C142.308 9.49219 140.883 9.8362 139.654 10.5172C138.426 11.1982 137.478 12.153 136.79 13.3676C136.102 14.5821 135.765 15.9863 135.765 17.5799C135.765 19.1736 136.109 20.5848 136.79 21.8064C137.471 23.035 138.433 23.9898 139.668 24.6848C140.904 25.3799 142.35 25.7239 144 25.7239C145.839 25.7239 147.363 25.2956 148.577 24.4391C149.792 23.5826 150.656 22.4172 151.168 20.9498H147.524C147.236 21.5817 146.787 22.0521 146.176 22.361C145.566 22.6699 144.849 22.8173 144.035 22.8173C142.624 22.8173 141.536 22.375 140.77 21.4834C140.188 20.8094 139.83 19.9038 139.689 18.7735H151.477C151.519 18.5277 151.547 18.282 151.568 18.0363C151.589 17.7906 151.596 17.5238 151.596 17.243C151.596 15.6914 151.28 14.3364 150.648 13.171L150.656 13.164ZM143.881 12.3987C145.088 12.3987 146.022 12.7638 146.696 13.501C147.251 14.1047 147.573 14.9683 147.672 16.0705H139.752C139.921 15.1227 140.258 14.3434 140.77 13.7397C141.536 12.841 142.575 12.3917 143.881 12.3917V12.3987Z" fill="black"/>
</g>
<defs>
<clipPath id="clip0_74_777">
<rect width="151.603" height="32" fill="white"/>
</clipPath>
</defs>
</svg>
